<svg width="24" height="24" viewBox="0 0 24 24" fill="none" xmlns="http://www.w3.org/2000/svg">
<path d="M7.88967 16.2205V22.6319C7.88967 22.7063 7.97361 22.7474 8.0299 22.7006L11.5722 19.7581C11.6053 19.7306 11.6529 19.732 11.6843 19.7614L13.4996 21.4557M15.1325 16.2205V20.8622M18.8039 8.08623C18.8039 11.9999 15.7138 15.1725 11.902 15.1725C8.09012 15.1725 5 11.9999 5 8.08623C5 4.17261 8.09012 1 11.902 1C15.7138 1 18.8039 4.17261 18.8039 8.08623ZM12.9501 6.05626L15.3654 5.84353C15.6308 5.82015 15.7697 6.15211 15.5662 6.31567C14.6737 7.03281 13.6665 7.99413 13.8663 8.4298C14.1903 9.13611 15.3243 11.7259 14.5953 11.6474C13.8663 11.5689 12.0843 9.60698 11.5983 9.92089C11.1123 10.2348 9.16833 12.5892 8.76333 11.6474C8.35833 10.7057 10.2213 9.05763 9.57333 8.4298C8.92533 7.80197 7.06234 6.78175 8.19634 6.54631C8.97109 6.38547 9.80097 6.32764 10.2622 6.31418C10.3816 6.3107 10.4856 6.23503 10.5183 6.12585C10.8384 5.05417 11.4745 3.36412 11.8413 3.95652C12.1802 4.50377 12.5027 5.36904 12.6693 5.87664C12.7071 5.99173 12.8238 6.06739 12.9501 6.05626Z" stroke="black" stroke-linecap="round"/>
</svg>
