<svg width="202" height="42" viewBox="0 0 202 42" fill="none" xmlns="http://www.w3.org/2000/svg">
<path d="M20.2954 2.2447C21.4446 -1.33172 20.067 4.32891 19.8165 5.23031C17.4852 13.6172 14.4737 21.7517 11.5216 29.9339C10.3002 33.3192 5.91273 43.1486 7.73256 40.0438C9.00512 37.8727 10.2848 35.7062 11.5254 33.5166" stroke="#1E1E1E" stroke-width="1.49725" stroke-linecap="round" stroke-linejoin="round"/>
<path d="M19.9272 19.3166C20.6762 17.7771 23.363 13.4223 22.289 14.7557C20.1475 17.4144 18.2161 20.2025 15.9248 22.7474C12.1763 26.9107 8.13163 30.7627 3.85721 34.3789C3.49693 34.6837 0.562468 37.0809 1.26578 36.5761C3.04877 35.2964 8.73444 29.6887 11.2087 31.1749C12.5282 31.9674 12.6336 34.7202 14.7905 33.0806C15.2726 32.7141 17.9128 28.5633 16.7496 28.9115C14.1959 29.6759 16.141 35.3964 17.0705 36.5131C20.4343 40.5539 24.5902 33.3159 24.6092 30.2773C24.6213 28.3328 22.1689 28.0225 20.7254 28.5C18.7896 29.1403 17.0454 31.2377 16.4674 33.1591C15.224 37.2927 20.4688 37.7952 23.1949 37.1305C25.4314 36.5852 27.4539 35.4641 29.0237 33.7773C29.3557 33.4206 31.2733 31.4711 31.0287 30.8537C30.9096 30.5532 29.3619 32.491 29.2806 32.6246C28.8561 33.3221 28.3231 34.3269 28.5365 35.1852C29.1216 37.5385 34.4252 33.9802 35.2258 33.274C36.0459 32.5504 35.704 31.9482 35.8918 33.1671C36.2864 35.7287 38.7471 35.9009 40.3393 34.2232C41.7026 32.7867 43.4753 28.7212 42.2965 32.8577C41.7479 34.7827 41.1315 37.0334 43.6184 34.9788" stroke="#1E1E1E" stroke-width="1.49725" stroke-linecap="round" stroke-linejoin="round"/>
<path d="M45.4529 26.3285C44.7794 26.3258 43.7687 26.0366 43.4752 26.6763" stroke="#1E1E1E" stroke-width="1.49725" stroke-linecap="round" stroke-linejoin="round"/>
<path d="M49.4968 37.556C49.5353 35.1491 50.7125 32.9274 51.5647 30.7255C53.3175 26.1964 55.1214 21.7192 57.1113 17.2887C57.6399 16.1117 58.1604 14.9309 58.657 13.7399C58.8311 13.3225 59.5868 12.3306 59.1598 12.4797C57.7584 12.9692 56.2387 17.8556 55.6951 19.0173C54.6278 21.2979 47.2653 39.2032 54.1326 38.6288C56.6208 38.4207 58.2903 35.266 59.3117 33.3417C59.5114 32.9655 61.6357 29.0954 60.2593 29.261C58.6146 29.4588 56.2782 32.4187 57.6686 33.8858C59.9212 36.2625 66.1618 37.5872 67.2463 33.4436C68.254 29.5935 64.752 28.4109 62.373 31.1886C61.388 32.3386 61.6489 33.4452 63.1974 33.7437C67.1222 34.5 71.2228 33.1143 74.9475 32.0542" stroke="#1E1E1E" stroke-width="1.49725" stroke-linecap="round" stroke-linejoin="round"/>
<path d="M110.246 18.2544C110.467 15.5404 110.827 12.6274 111.849 10.0846C111.901 9.9546 112.591 8.33493 112.228 9.16952C108.573 17.5702 108.216 26.9292 106.876 35.8656C106.653 37.3508 106.191 39.8271 105.615 37.008C104.789 32.9606 104.728 28.7918 103.879 24.7279C102.782 19.472 100.581 12.2696 102.647 6.93018C104.061 3.27828 109.272 4.67983 111.537 6.44854C115.967 9.90795 121.322 19.0234 115.463 23.3402C112.929 25.2066 109.527 26.3408 106.416 26.7016C105.527 26.8046 102.111 26.7527 103.485 24.9597C105.621 22.174 111.682 23.0843 114.61 23.1322" stroke="#1E1E1E" stroke-width="1.49725" stroke-linecap="round" stroke-linejoin="round"/>
<path d="M118.872 26.4524C115.916 27.6788 112.736 30.3754 113.386 34.0279C114.151 38.3279 122.169 29.5559 122.166 26.8777C122.163 24.7456 119.442 23.9409 117.769 24.6683C115.628 25.5995 114.235 28.8107 114.012 31.0004C113.441 36.6009 123.153 30.0682 124.47 28.9093C127.092 26.604 125.797 26.7914 124.947 29.6061C123.808 33.3828 126.163 32.1262 128.7 31.0309C128.804 30.9861 131.352 29.6416 130.632 29.7011C130.353 29.7241 130.942 30.4393 130.977 30.468C131.783 31.1271 132.909 31.4486 133.928 31.5234C136.078 31.6809 139.236 28.8209 136.071 27.6282C133.597 26.6958 129.609 30.4363 132.541 31.7078C134.068 32.37 136.095 31.9271 137.442 31.0796C137.889 30.798 140.09 29.0909 139.263 28.3361C137.808 27.0094 135.625 30.4486 137.197 31.4561C139.139 32.7009 141.845 30.4347 143.21 29.3036C147.382 25.8466 149.401 20.828 151.319 15.9089C151.844 14.5651 155.438 7.92592 154.472 6.51697C153.668 5.34419 148.624 11.6978 148.28 12.1661C146.168 15.0392 135.743 36.304 146.203 33.3446C149.838 32.316 157.647 23.6259 154.341 25.4548C152.574 26.4318 149.554 32.093 153.01 32.7052C153.723 32.8315 156.767 31.6637 156.801 31.7366C157.113 32.4093 159.169 28.0088 158.991 27.0185C158.777 25.8216 155.236 28.4925 156.802 30.8906C160.529 36.601 164.418 19.2138 166.747 29.3152C167.226 31.391 167.058 36.8793 163.254 35.2211C161.892 34.6278 165.482 31.5642 165.758 31.3037C171.269 26.097 176.951 21.1031 182.321 15.7437C183.222 14.844 189.662 9.73746 188.795 7.92642C188.131 6.53851 181.16 13.4662 180.723 13.95C177.24 17.8088 173.141 23.0574 172.165 28.2964C171.611 31.2719 173.784 32.2838 176.419 31.408C179.321 30.4436 182.019 28.3368 184.458 26.535C186.401 25.0992 185.625 24.689 183.558 25.2782C181.531 25.8562 177.617 27.0347 176.548 29.0951C175.743 30.6486 177.702 31.322 178.897 31.3146C180.595 31.3039 181.484 29.4429 182.419 30.6432C184.361 33.1342 191.38 30.032 192.818 28.1609C193.992 26.6325 190.53 26.6737 189.775 26.6369C187.816 26.5412 185.709 26.7397 184.629 28.6261C183.414 30.7481 184.874 32.476 186.973 32.9894C191.662 34.1361 196.8 31.8748 201.157 30.4204" stroke="#1E1E1E" stroke-width="1.49725" stroke-linecap="round" stroke-linejoin="round"/>
</svg>
